<mxfile host="Electron" agent="Mozilla/5.0 (Windows NT 10.0; Win64; x64) AppleWebKit/537.36 (KHTML, like Gecko) draw.io/26.0.3 Chrome/130.0.6723.137 Electron/33.2.1 Safari/537.36" version="26.0.3">
  <diagram id="C5RBs43oDa-KdzZeNtuy" name="Page-1">
    <mxGraphModel dx="1434" dy="844" grid="1" gridSize="10" guides="1" tooltips="1" connect="1" arrows="1" fold="1" page="1" pageScale="1" pageWidth="827" pageHeight="1169" math="0" shadow="0">
      <root>
        <mxCell id="WIyWlLk6GJQsqaUBKTNV-0" />
        <mxCell id="WIyWlLk6GJQsqaUBKTNV-1" parent="WIyWlLk6GJQsqaUBKTNV-0" />
        <mxCell id="WIyWlLk6GJQsqaUBKTNV-3" value="Coffee machine&lt;br&gt;stand by" style="rounded=1;whiteSpace=wrap;html=1;fontSize=12;glass=0;strokeWidth=1;shadow=0;fillColor=#fff2cc;strokeColor=#d6b656;" parent="WIyWlLk6GJQsqaUBKTNV-1" vertex="1">
          <mxGeometry x="106" y="240" width="120" height="40" as="geometry" />
        </mxCell>
        <mxCell id="WIyWlLk6GJQsqaUBKTNV-4" value="enogth" style="rounded=0;html=1;jettySize=auto;orthogonalLoop=1;fontSize=11;endArrow=block;endFill=0;endSize=8;strokeWidth=1;shadow=0;labelBackgroundColor=none;edgeStyle=orthogonalEdgeStyle;exitX=0.5;exitY=1;exitDx=0;exitDy=0;" parent="WIyWlLk6GJQsqaUBKTNV-1" source="ORDCtZO6DiqBBNX1G9g_-18" target="WIyWlLk6GJQsqaUBKTNV-10" edge="1">
          <mxGeometry x="-0.5833" y="-29" relative="1" as="geometry">
            <mxPoint as="offset" />
            <mxPoint x="393" y="250" as="sourcePoint" />
          </mxGeometry>
        </mxCell>
        <mxCell id="WIyWlLk6GJQsqaUBKTNV-5" value="Hot drink &lt;br&gt;choosen" style="edgeStyle=orthogonalEdgeStyle;rounded=0;html=1;jettySize=auto;orthogonalLoop=1;fontSize=11;endArrow=block;endFill=0;endSize=8;strokeWidth=1;shadow=0;labelBackgroundColor=none;entryX=0;entryY=0.5;entryDx=0;entryDy=0;" parent="WIyWlLk6GJQsqaUBKTNV-1" target="WIyWlLk6GJQsqaUBKTNV-7" edge="1">
          <mxGeometry x="-0.1053" y="15" relative="1" as="geometry">
            <mxPoint as="offset" />
            <mxPoint x="216" y="165" as="sourcePoint" />
            <mxPoint x="292" y="165" as="targetPoint" />
          </mxGeometry>
        </mxCell>
        <mxCell id="WIyWlLk6GJQsqaUBKTNV-6" value="Prompt&lt;br&gt;user choice" style="rhombus;whiteSpace=wrap;html=1;shadow=0;fontFamily=Helvetica;fontSize=12;align=center;strokeWidth=1;spacing=6;spacingTop=-4;" parent="WIyWlLk6GJQsqaUBKTNV-1" vertex="1">
          <mxGeometry x="116" y="125" width="100" height="80" as="geometry" />
        </mxCell>
        <mxCell id="WIyWlLk6GJQsqaUBKTNV-7" value="Print resource report &lt;br&gt;&amp;amp;&amp;nbsp;count coins" style="rounded=1;whiteSpace=wrap;html=1;fontSize=12;glass=0;strokeWidth=1;shadow=0;rotation=0;" parent="WIyWlLk6GJQsqaUBKTNV-1" vertex="1">
          <mxGeometry x="335" y="145" width="128" height="40" as="geometry" />
        </mxCell>
        <mxCell id="WIyWlLk6GJQsqaUBKTNV-8" value="Espresso" style="rounded=0;html=1;jettySize=auto;orthogonalLoop=1;fontSize=11;endArrow=block;endFill=0;endSize=8;strokeWidth=1;shadow=0;labelBackgroundColor=none;edgeStyle=orthogonalEdgeStyle;exitX=0.5;exitY=1;exitDx=0;exitDy=0;" parent="WIyWlLk6GJQsqaUBKTNV-1" source="ORDCtZO6DiqBBNX1G9g_-11" target="WIyWlLk6GJQsqaUBKTNV-11" edge="1">
          <mxGeometry x="-0.0909" y="29" relative="1" as="geometry">
            <mxPoint as="offset" />
          </mxGeometry>
        </mxCell>
        <mxCell id="WIyWlLk6GJQsqaUBKTNV-9" value="Yes" style="edgeStyle=orthogonalEdgeStyle;rounded=0;html=1;jettySize=auto;orthogonalLoop=1;fontSize=11;endArrow=block;endFill=0;endSize=8;strokeWidth=1;shadow=0;labelBackgroundColor=none;exitX=1;exitY=0.5;exitDx=0;exitDy=0;entryX=0;entryY=0.5;entryDx=0;entryDy=0;" parent="WIyWlLk6GJQsqaUBKTNV-1" source="WIyWlLk6GJQsqaUBKTNV-10" target="ORDCtZO6DiqBBNX1G9g_-11" edge="1">
          <mxGeometry x="-0.1688" y="10" relative="1" as="geometry">
            <mxPoint as="offset" />
            <mxPoint x="453" y="330" as="sourcePoint" />
            <mxPoint x="493" y="371" as="targetPoint" />
          </mxGeometry>
        </mxCell>
        <mxCell id="WIyWlLk6GJQsqaUBKTNV-10" value="resources sufficient?" style="rhombus;whiteSpace=wrap;html=1;shadow=0;fontFamily=Helvetica;fontSize=12;align=center;strokeWidth=1;spacing=6;spacingTop=-4;" parent="WIyWlLk6GJQsqaUBKTNV-1" vertex="1">
          <mxGeometry x="349" y="332" width="100" height="80" as="geometry" />
        </mxCell>
        <mxCell id="WIyWlLk6GJQsqaUBKTNV-11" value="Repair Lamp" style="rounded=1;whiteSpace=wrap;html=1;fontSize=12;glass=0;strokeWidth=1;shadow=0;" parent="WIyWlLk6GJQsqaUBKTNV-1" vertex="1">
          <mxGeometry x="487" y="456" width="120" height="40" as="geometry" />
        </mxCell>
        <mxCell id="ORDCtZO6DiqBBNX1G9g_-0" value="OFF" style="rounded=1;whiteSpace=wrap;html=1;shadow=0;glass=0;strokeColor=default;strokeWidth=1;align=center;verticalAlign=middle;fontFamily=Helvetica;fontSize=12;fontColor=default;fillColor=default;rotation=0;" vertex="1" parent="WIyWlLk6GJQsqaUBKTNV-1">
          <mxGeometry x="12" y="145" width="60" height="40" as="geometry" />
        </mxCell>
        <mxCell id="ORDCtZO6DiqBBNX1G9g_-2" value="Turn" style="edgeStyle=orthogonalEdgeStyle;rounded=0;html=1;jettySize=auto;orthogonalLoop=1;fontSize=11;endArrow=block;endFill=0;endSize=8;strokeWidth=1;shadow=0;labelBackgroundColor=none;exitX=0;exitY=0.5;exitDx=0;exitDy=0;entryX=1;entryY=0.5;entryDx=0;entryDy=0;" edge="1" parent="WIyWlLk6GJQsqaUBKTNV-1" source="WIyWlLk6GJQsqaUBKTNV-6" target="ORDCtZO6DiqBBNX1G9g_-0">
          <mxGeometry y="-10" relative="1" as="geometry">
            <mxPoint as="offset" />
            <mxPoint x="226" y="203" as="sourcePoint" />
            <mxPoint x="302" y="203" as="targetPoint" />
          </mxGeometry>
        </mxCell>
        <mxCell id="ORDCtZO6DiqBBNX1G9g_-4" value="ON" style="edgeStyle=orthogonalEdgeStyle;rounded=0;html=1;jettySize=auto;orthogonalLoop=1;fontSize=11;endArrow=block;endFill=0;endSize=8;strokeWidth=1;shadow=0;labelBackgroundColor=none;exitX=0.5;exitY=0;exitDx=0;exitDy=0;entryX=0.5;entryY=1;entryDx=0;entryDy=0;" edge="1" parent="WIyWlLk6GJQsqaUBKTNV-1" source="WIyWlLk6GJQsqaUBKTNV-3" target="WIyWlLk6GJQsqaUBKTNV-6">
          <mxGeometry x="0.0625" y="-14" relative="1" as="geometry">
            <mxPoint as="offset" />
            <mxPoint x="126" y="103" as="sourcePoint" />
            <mxPoint x="37" y="103" as="targetPoint" />
          </mxGeometry>
        </mxCell>
        <mxCell id="ORDCtZO6DiqBBNX1G9g_-6" value="OFF" style="edgeStyle=orthogonalEdgeStyle;rounded=0;html=1;jettySize=auto;orthogonalLoop=1;fontSize=11;endArrow=block;endFill=0;endSize=8;strokeWidth=1;shadow=0;labelBackgroundColor=none;exitX=0.5;exitY=1;exitDx=0;exitDy=0;entryX=0;entryY=0.5;entryDx=0;entryDy=0;" edge="1" parent="WIyWlLk6GJQsqaUBKTNV-1" source="ORDCtZO6DiqBBNX1G9g_-0" target="WIyWlLk6GJQsqaUBKTNV-3">
          <mxGeometry x="-0.4853" y="18" relative="1" as="geometry">
            <mxPoint as="offset" />
            <mxPoint x="126" y="122" as="sourcePoint" />
            <mxPoint x="37" y="122" as="targetPoint" />
          </mxGeometry>
        </mxCell>
        <mxCell id="ORDCtZO6DiqBBNX1G9g_-9" value="No" style="edgeStyle=orthogonalEdgeStyle;rounded=0;html=1;jettySize=auto;orthogonalLoop=1;fontSize=11;endArrow=block;endFill=0;endSize=8;strokeWidth=1;shadow=0;labelBackgroundColor=none;entryX=1;entryY=0.5;entryDx=0;entryDy=0;" edge="1" parent="WIyWlLk6GJQsqaUBKTNV-1" source="WIyWlLk6GJQsqaUBKTNV-10" target="ORDCtZO6DiqBBNX1G9g_-12">
          <mxGeometry x="-0.0407" y="-10" relative="1" as="geometry">
            <mxPoint as="offset" />
            <mxPoint x="306" y="371" as="sourcePoint" />
            <mxPoint x="290" y="371" as="targetPoint" />
          </mxGeometry>
        </mxCell>
        <mxCell id="ORDCtZO6DiqBBNX1G9g_-11" value="resources sufficient?" style="rhombus;whiteSpace=wrap;html=1;shadow=0;fontFamily=Helvetica;fontSize=12;align=center;strokeWidth=1;spacing=6;spacingTop=-4;" vertex="1" parent="WIyWlLk6GJQsqaUBKTNV-1">
          <mxGeometry x="497" y="332" width="100" height="80" as="geometry" />
        </mxCell>
        <mxCell id="ORDCtZO6DiqBBNX1G9g_-12" value="Print excuse,&lt;br&gt;report &amp;amp; stand by" style="rounded=1;whiteSpace=wrap;html=1;fontSize=12;glass=0;strokeWidth=1;shadow=0;" vertex="1" parent="WIyWlLk6GJQsqaUBKTNV-1">
          <mxGeometry x="109" y="352" width="120" height="40" as="geometry" />
        </mxCell>
        <mxCell id="ORDCtZO6DiqBBNX1G9g_-14" value="" style="edgeStyle=orthogonalEdgeStyle;rounded=0;html=1;jettySize=auto;orthogonalLoop=1;fontSize=11;endArrow=block;endFill=0;endSize=8;strokeWidth=1;shadow=0;labelBackgroundColor=none;exitX=0.475;exitY=-0.015;exitDx=0;exitDy=0;entryX=0.5;entryY=1;entryDx=0;entryDy=0;exitPerimeter=0;" edge="1" parent="WIyWlLk6GJQsqaUBKTNV-1" source="ORDCtZO6DiqBBNX1G9g_-12" target="WIyWlLk6GJQsqaUBKTNV-3">
          <mxGeometry x="0.0625" y="-14" relative="1" as="geometry">
            <mxPoint as="offset" />
            <mxPoint x="176" y="329" as="sourcePoint" />
            <mxPoint x="176" y="297" as="targetPoint" />
          </mxGeometry>
        </mxCell>
        <mxCell id="ORDCtZO6DiqBBNX1G9g_-15" value="Latte" style="rounded=0;html=1;jettySize=auto;orthogonalLoop=1;fontSize=11;endArrow=block;endFill=0;endSize=8;strokeWidth=1;shadow=0;labelBackgroundColor=none;edgeStyle=orthogonalEdgeStyle;exitX=1;exitY=0.5;exitDx=0;exitDy=0;" edge="1" parent="WIyWlLk6GJQsqaUBKTNV-1" source="ORDCtZO6DiqBBNX1G9g_-11">
          <mxGeometry x="-0.1658" y="10" relative="1" as="geometry">
            <mxPoint as="offset" />
            <mxPoint x="629" y="369" as="sourcePoint" />
            <mxPoint x="666" y="372" as="targetPoint" />
          </mxGeometry>
        </mxCell>
        <mxCell id="ORDCtZO6DiqBBNX1G9g_-16" value="Capuchino" style="rounded=0;html=1;jettySize=auto;orthogonalLoop=1;fontSize=11;endArrow=block;endFill=0;endSize=8;strokeWidth=1;shadow=0;labelBackgroundColor=none;edgeStyle=orthogonalEdgeStyle;exitX=0.5;exitY=0;exitDx=0;exitDy=0;" edge="1" parent="WIyWlLk6GJQsqaUBKTNV-1" source="ORDCtZO6DiqBBNX1G9g_-11" target="ORDCtZO6DiqBBNX1G9g_-17">
          <mxGeometry x="0.28" y="-33" relative="1" as="geometry">
            <mxPoint as="offset" />
            <mxPoint x="567" y="295" as="sourcePoint" />
            <mxPoint x="546" y="282" as="targetPoint" />
          </mxGeometry>
        </mxCell>
        <mxCell id="ORDCtZO6DiqBBNX1G9g_-17" value="Repair Lamp" style="rounded=1;whiteSpace=wrap;html=1;fontSize=12;glass=0;strokeWidth=1;shadow=0;" vertex="1" parent="WIyWlLk6GJQsqaUBKTNV-1">
          <mxGeometry x="487" y="262" width="120" height="40" as="geometry" />
        </mxCell>
        <mxCell id="ORDCtZO6DiqBBNX1G9g_-18" value="is sum sufficient?" style="rhombus;whiteSpace=wrap;html=1;shadow=0;fontFamily=Helvetica;fontSize=12;align=center;strokeWidth=1;spacing=6;spacingTop=-4;" vertex="1" parent="WIyWlLk6GJQsqaUBKTNV-1">
          <mxGeometry x="349" y="220" width="100" height="80" as="geometry" />
        </mxCell>
        <mxCell id="ORDCtZO6DiqBBNX1G9g_-19" value="" style="rounded=0;html=1;jettySize=auto;orthogonalLoop=1;fontSize=11;endArrow=block;endFill=0;endSize=8;strokeWidth=1;shadow=0;labelBackgroundColor=none;edgeStyle=orthogonalEdgeStyle;exitX=0.5;exitY=1;exitDx=0;exitDy=0;entryX=0.5;entryY=0;entryDx=0;entryDy=0;" edge="1" parent="WIyWlLk6GJQsqaUBKTNV-1" source="WIyWlLk6GJQsqaUBKTNV-7" target="ORDCtZO6DiqBBNX1G9g_-18">
          <mxGeometry x="-0.1429" y="-16" relative="1" as="geometry">
            <mxPoint as="offset" />
            <mxPoint x="409" y="195" as="sourcePoint" />
            <mxPoint x="409" y="227" as="targetPoint" />
          </mxGeometry>
        </mxCell>
        <mxCell id="ORDCtZO6DiqBBNX1G9g_-20" value="change out" style="rounded=1;whiteSpace=wrap;html=1;fontSize=12;glass=0;strokeWidth=1;shadow=0;" vertex="1" parent="WIyWlLk6GJQsqaUBKTNV-1">
          <mxGeometry x="249" y="240" width="70" height="40" as="geometry" />
        </mxCell>
        <mxCell id="ORDCtZO6DiqBBNX1G9g_-22" value="&amp;gt;" style="edgeStyle=orthogonalEdgeStyle;rounded=0;html=1;jettySize=auto;orthogonalLoop=1;fontSize=11;endArrow=block;endFill=0;endSize=8;strokeWidth=1;shadow=0;labelBackgroundColor=none;entryX=1;entryY=0.5;entryDx=0;entryDy=0;" edge="1" parent="WIyWlLk6GJQsqaUBKTNV-1" source="ORDCtZO6DiqBBNX1G9g_-18" target="ORDCtZO6DiqBBNX1G9g_-20">
          <mxGeometry x="0.2" y="-10" relative="1" as="geometry">
            <mxPoint as="offset" />
            <mxPoint x="359" y="304" as="sourcePoint" />
            <mxPoint x="320" y="304" as="targetPoint" />
          </mxGeometry>
        </mxCell>
        <mxCell id="ORDCtZO6DiqBBNX1G9g_-24" value="" style="shape=image;verticalLabelPosition=bottom;labelBackgroundColor=default;verticalAlign=top;aspect=fixed;imageAspect=0;image=data:image/png,iVBORw0KGgoAAAANSUhEUgAAAkoAAAJTCAIAAAB4mK6dAAAgAElEQVR4Ae2d6aGsKBBGOx/jMYjJwniM4gVhPs5lK8CFdkFa9MyPeSpb1SnkE9orn//4DwIQgAAEIPA4Ap+R/yAAAQhAAAKPI4C8PS6kOAQBCEAAAuOIvNELIAABCEDggQSQtwcGFZcgAAEIQAB5ow9AAAIQgMADCYi89e2n7R/o4E1cAu9NAoEZEIDAWwggb2UijbyV4UwrEIAABCwB5K1MV0DeynCmFQhAAAKWwKf9zP+zq5RdM0tqOlOOJIXmO40+gZc+CAEIQAAC1xFg9nYd27BmZm8hDY4hAAEIXE4AebscsW4AeSvDmVYgAAEIWALIW5mugLyV4UwrEIAABCwBkTeIQAACEIAABJ5DAHl7TizxBAIQgAAEhADyJig4gAAEIACB5xBA3p4TSzyBAAQgAAEhgLwJCg4gAAEIQOA5BJC358QSTyAAAQhAQAggb4KCAwhAAAIQeA4B5O05scQTCEAAAhAQAsiboOAAAhCAAASeQwB5e04s8QQCEIAABISAyBtfjRImVxyA9wqq1AkBCEBglUBpeRu61m2z07RdtEP40DVNN6xauj8he4X7TZASyJug4AACEIBACQJl5a1vG7uX3DgOvRI6OR3H7GqUvcITAUHeTsCjKAQgAIH9BIrK29A1n6YbZIYmY75KmPwXTOTUjM+lN23XS3mliLpY2xuxVFuMtirdJQSVBhXux3S6hLh6uiYqgAAEIACBDQSKytuodEekKlaq1Oxt8Io4xAuaykO9I3bThLJnHGf2tqEDkAUCEIDAMwmUljdPcRiULm1ZnAx+r7NzNV+LkbegliAJeQtgcAgBCEDgXQSKytv03RGtP8J7RY369hPOzOarfPMrtsqVCqXBkgerRpY0grYgAAEIvIdAYXn7hL+9TeRHndpp2NCrH9Va9SOb+hVN/5ymjmevo6hArSrHcoW/ie2qkb8xh1YhAAEIPJ1AYXlrOv+HAeotkBivfpdSrz82rX8DJVibbNq+a1UG857I/AWSSY3LFcaNljlD3spwphUIQAAClkBReXsxdeTtxcHHdQhA4BcEkLcy1JG3MpxpBQIQgIAlIPIGEQhAAAIQgMBzCCBvz4klnkAAAhCAgBBA3gQFBxCAAAQg8BwCyNtzYoknEIAABCAgBJA3QcEBBCAAAQg8hwDy9pxY4gkEIAABCAgB5E1QcAABCEAAAs8hgLw9J5Z4AgEIQAACQkDkjb87FiZXHID3CqrUCQEIQGCVAPK2iiZrAvKWFSeVQQACEPhGAHn7RihPOvKWhyO1QAACENhI4KM/wK+/0u//Z7+7rzalmfzXdKZekhSY7zT0TuIThuEWrhujRDYIQAACENhJgNnbTmAHszN7OwiOYhCAAASOEUDejnHbWwp520uM/BCAAAROEUDeTuHbXBh524yKjBCAAARyEBB5y1EZdUAAAhCAAATuQQB5u0ccsAICEIAABLISQN6y4qQyCEAAAhC4BwHk7R5xwAoIQAACEMhKAHnLipPKIAABCEDgHgSQt3vEASsgAAEIQCArAeQtK04qgwAEIACBexAoKm///v27h9dYAQEIQAACDydQVN4ezhL3IAABCEDgNgSKyhuzt9vEHUMgAAEIPJxAUXk7x5LvWp3jR2kIQAACbyJQVN7Ozd6Qtzd1THyFAAQgcI5AUXk7Zyrydo4fpSEAAQi8iUBReWP29qauha8QgAAEfkmgqLydc5TZ2zl+lIYABCDwJgJF5Y3Z25u6Fr5CAAIQ+CWBovJ2zlFmb+f4URoCEIDAmwgUlTdmb2/qWvgKAQhA4JcEisrbOUeZvZ3jR2kIQAACbyJQVN6Yvb2pa+ErBCAAgV8SKCpv5xxl9naOH6UhAAEIvIlAUXk7N3t7U1jwFQIQgAAEzhEoKm/nTKU0BCAAAQhAYCuBovLG7G1rWMgHAQhAAALnCBSVt3OmUhoCEIAABCCwlUBReWP2tjUs5IMABCAAgXMEisrbOVMpDQEIQAACENhKoKi8MXvbGhbyQQACEIDAOQJF5e2cqZSGAAQgAAEIbCVQVN6YvW0NC/kgAAEIQOAcgaLyds5USkMAAhCAAAS2Eigqb0dmb0PXfOx/bd+3/nirh+SDAAQgAIEXEigqb0f5Dm3T9rbw0DVNNxytiXIQgAAEIPAOAkXl7cjsTYfBa1ofKN07IoSXEIAABCBwgEBReTtgnyuitgsYxpGpmwPCvxCAAAQgkCJQVN4Oz97GcVQTuJapWyqWpEEAAhCAgBAoKm/S6pED/Y6J/AR3pAbKQAACEIDAawgUlbczs7fXRARHIQABCEAgA4Gi8pbBXqqAAAQgAAEIbCBQVN6YvW2ICFkgAAEIQCADgaLylsFeqoAABCAAAQhsIFBU3pi9bYgIWSAAAQhAIAOBovKWwV6qgAAEIAABCGwggLxtgEQWCEAAAhCojQDyVlvEsBcCEIAABDYQQN42QCILBCAAAQjURgB5qy1i2AsBCEAAAhsIiLypbxa7TWc2lCMLBKonQJ+vPoQ4AIEEAeQtAYekZxNA3p4dX7x7OwHk7e094MX+I28vDj6uv4DAp/3M/7OrlF0zS2o6w4QkhQYaYQephkaf6PMvuOVxEQJvIcDs7S2Rxs8ZAWZvMyRcgMCDCCBvDwomruwjgLzt40VuCNRFAHmrK15Ym5EA8pYRJlVB4HYERN5uZxkGQQACEIAABA4TQN4Oo6MgBCAAAQjclwDydt/YYBkEIAABCBwmgLwdRkdBCEAAAhC4LwHk7b6xwTIIQAACEDhMAHk7jI6CEIAABCBwXwLI231jg2UQgAAEIHCYAPJ2GB0FIQABCEDgvgSQt/vGBssgAAEIQOAwAeTtMLpZQfWp3kv2zOuaa+qdeXDFhaqNvwIIdUIAAmUIiLzxgaLTwHfKm/lwfdMNXxruW9ma4EvOGybvNr5vZZ+KZsJmOWnoO1ekaftvMCNE9PkIBycQeBiBg/I23VOkab+O0heBG7rpKHi8oWG6z8/Vbm0xPpr9TLl/mkumi5sQ7jZe1xqo0WeOV6vh8qbxy0kqZG0/KFUb+q75TBQx7QjyluZDKgTqJnBQ3sZxjMaGoW9/NNBuGWT3hCh2a++AuaclNSJ/1eb57EeXse0ManTfNaLvNDCV/YjxSp6bzs6xVKeZWB/RjxtfTgppbOEZ1blcZZSFEwhAoFoCmeQtUDs3BWp7PXzpbT/9opFaSbKrT41dS7KLdK1eYmra3q5BGbk08ym5qPYQlYmiaynYU3M61Nu6d0wtp0OenLvWlvxyadPf3pxr4fJZ2FX04KwmHea/qfXjGE3dTMl4QI+fMoLlu4BTiqGucyEo+rpza+ayS0iQHxeMH9Qya7x8KHiVI/F/PmsiKaQZdML48tqZb3wtB9chAIF6CWSSt2EyUugBqZHndMtHT/H88OanfGq41GKnx00lhkPXutcpVF0q0RWMZw3x2TQQZmD0A+U0fX4+cWQywVr2y9UyLauuG9fMoK4nW+FqopW3P8WfjPqmRj11c267RkJ5UwT9rLlr/WOEXqxr5UkgwXA1KLbBVZfT5JVcTbwKLXfexPI8OZNM6mAJrs8wGBSLGH2uyVG6yklmTiEAgcoInJI3/7Q9/VF/ceD4m1tMhx+7OOcHPikoBwvjWljRl0F2dzh8u6ZoXP80Na5+KdW7pvJOcrhZUCh5vsqFqZvVSwEfPEC4uiRNHTSdqW7SrrbEBCNkaZuOV0znRW22mIw32xwtGB+jsAXi6uOzqM5E0oxrVHD9JFnlejFSIACBKgickrflUVn5vThwrI+kfuCTgnKwUJdP2/1zy9eghHXPPZmmxtUtpXrX5rXZqaGe4E2FX7k9expQVQQV9l3j5336+nSq5+ybW+aurAfFlnUZXVXyb6rBZeOTi5O63tXGVrqUGHPoINHaofooBAEI3IlASXkbV9fB/JAtI44cqHH+y+KklVn96tynDYd4vbK2LBMrUfDt6vW9eCazILVhNVFZm+BdUxcmOUQh1EH8sDDJ6ZuJK1TS6AqalUpxXy0YB7O3NYarQbFNJg1ZIb9aRscy56sl2kg7cXUcPKsvR6tmfilHMgQgUAOBg/JmZMOug7kxVPs7XyOLRh3/R0qf+NUSvZI2aC3TL2h4YdKD0BC8nTGZ6PzNP5whbSe/0Bn4vpYtwZjZ7l9j0b+hRet+oir6HYo4ya0KCiY9D4vPrKtmhjZ9u0R0b2K2VOFfYjFGW8gB3uDdEiurqwyDUi4oqt0ZjsBlbdcK+TXjdZn4DwP836klGkskGTw2Q9TRTEr6/8hbmg+pEKibwEF5K+n0Cweh7C5nrzDRAUq2lTBjQ1I9lm5whiwQgMCEAPI2AfLMUwbypbhCZYkK1yDwFAIibzd1SFbt1Hqf/Kx0U2NvahYMbxoYzIIABK4kcHd5u9J36oYABCAAgccSQN4eG1ocgwAEIPBmAsjbm6OP7xCAAAQeSwB5e2xocQwCEIDAmwkgb2+OPr5DAAIQeCwB5O2xocUxCEAAAm8mgLy9Ofr4DgEIQOCxBETe+BPXx8YYx1YI0OdXwHAZAo8ggLw9Iow4cYQA8naEGmUgUAsB5K2WSGFndgLIW3akVAiBGxH4tNNv3X/kY/TBx5xcJrc5AEmKCDRcv6iKRrDtgrd/93YDN7qJMQUCEFgiwOxtiQrXXkGA2dsrwoyTryWAvL029DiOvNEHIPBkAsjbk6OLb0kCyFsSD4kQqJyAyFvlfmA+BCAAAQhAICCAvAUwOIQABCAAgacQQN6eEkn8gAAEIACBgADyFsDgEAIQgAAEnkIAeXtKJPEDAhCAAAQCAshbAINDCEAAAhB4CgHk7SmRxA8IQAACEAgIFJW3f//+BU1zCAEIQAACELiKQFF5u8oJ6oUABCAAAQjEBIrKG7O3GD5nEIAABCBwFYGi8nbOCT6hdI4fpSEAAQi8iUBReTs3e0Pe3tQx8RUCEIDAOQJF5e2cqcjbOX6UhgAEIPAmAkXljdnbm7oWvkIAAhD4JYGi8nbOUWZv5/hRGgIQgMCbCBSVN2Zvb+pa+AoBCEDglwSKyts5R5m9neNHaQhAAAJvIlBU3pi9valr4SsEIACBXxIoKm/nHGX2do4fpSEAAQi8iUBReWP29qauha8QgAAEfkmgqLydc5TZ2zl+lIYABCDwJgJF5e3c7O1NYcFXCEAAAhA4R6CovJ0zldIQgAAEIACBrQSKyhuzt61hIR8EIAABCJwjUFTezplKaQhAAAIQgMBWAsjbVlLkgwAEIACBigggbxUFC1MhAAEIQGArAeRtKynyQQACEIBARQSQt4qChakQgAAEILCVgMjb/f9oGgu3BpV8EHgigfuPAE+kXrNPyFvG6HH7ZYRJVRCYEOD+mgDh9AsB5O0LoD3J3H57aJEXAvsIcH/t40XuT/uZ/9f2GkzXzJKaziArmNRjoQrDD8iPBaNMW/peI8rhkGNppEYARnAIJAgwe0vA2ZvE0+VeYuSHwHYC3F/bWZFTEUDeMvYDbr+MMKkKAhMC3F8TIJx+IYC8fQG0J5nbbw8t8kJgHwHur328yC3yBgoIQAACEIDAcwggb8+JJZ5AAAIQgIAQQN4EBQcQgAAEIPAcAsjbc2KJJxCAAAQgIASQN0HBAQQgAAEIPIcA8vacWOIJBCAAAQgIAeRNUHAAAQhAAALPIYC8PSeWeAIBCEAAAkIAeRMUHEAAAhCAwHMIIG/PiSWeQAAClxNQX3i2H52/vC0aOEdA5G3vB2/MZ7ybbhj0F/2bbthuSN/KXgTNpOBi0pm2tlt1ac6SeC91ZEvlD4jXFjfJU5jAPW6infImN8MSLEk8MIpO6xv0Bh+T8XSa6WXnh+XNxKMdRrOVSfQ4M/SdCFjTToWvbz9NZ7bcmcJeSUq1Na3ipud778wVl83tEGwa0kTgizo/dNNnE9f8ivEumX8hcIhAppvI6EB0E03HqEPmrRbKfqcM4fja++r90aot70o4LG9a1fSGTGrIDZ8ZzHlvZnODmo6FqeOY6KRrSeq5ZLGtaoK15tmqA6su6y5siw3qTo3prlaYPSFxL60an90IKnwRgXw3UTwIXX0X5b1Thi6aMfSdH38TDb2omwSuHpc3pWJ66qA6h59DDGpuFi9U+l45n3xI1kSSVsSltgI/7n7oGWy0dAXvOIbyNk4eFoKl3Y+fNutFi0/b+1Sfpq1Rk227XNw0rX0wGXVT+hm37fVTijo2ybPn3/gBRw0elcdrY5TIVpJAvpsolrfwNnJde9bng/th+tubGbuaVuZUkzUVfcv25jbUOxP78XH/nfJ3F9s9pQW9LKNMG/LDssq7dpuPo9ze+g7/GwxkWB79oKFufrn+zWWx7bcHx+Vt2e7J4Gsyxd0yPouqSSRF+eo7yedZSFh1S38rdW0gTbrPSndUvVEpk7uvdCXmpG9DRdM9PbordEdums6rnqUf1FFfPLC4QgL5bqKZvMWdebXPa2hLZugJoL3d9JpKeA/pyrW4iDwcpj90/oafVaK12d3OsRmp21z/JuTGBj2mODsTQ4p6zhbBi9ua2fWzC8hbGfRLt8Sxlt3jpZ5XBaoTXXc/LLgHvXnz6iFQ6Zv7NzBGHgb1tXlRmzUeEYLyHELgEgKrXXF/a9Oq4s48TY3rX0rV5SXbJIe7NUPJk7w7D77JWzDxCjU8fZsHv+V9Gj9Hc3a70cQOOdbipMs7vboqe255G5OLk9qLSexDzxJJYbYKj/N5FvSqvmv8OkJ8g04QzZt3V9L9Ply2mVRpVknddHCayDkEshNwfTZDxdOq4vP4bNrcUmpwV87vGXNrKrEIxWda7cbzpdZd0ckYEGT9epvbKoZBL1QaIZ5U51pxWdVjsFwL2pJrvz/ILm/mhzKZVWhYcVATIBJJv0d1yoJ8nsU3krpn3EOhWakUwRn0moOx+tzipGsgJqAMsSmD/mFBvUbLfxC4jEC+myic2Khl/HjBIk6dubNkRnxXTnKITAS3zKzW7RfUfe5WD63x9lwaMpWFZiQWJ8376u7mjWAkhpTJSwBhW9tduTrnBfKmiQd/GOB/tJlPdmXgTCRdjaBI/Zmir38UMGsFDp0hZ8+Cv8iQdXHln27eL0H49QftfFAqfLXka0z+HgntuoWq0N0fRXjSyAsJZLqJZv06uB1mafLwaP8CKlqoM69zq7vL/KdVJj6ziUZ/Ft8uORBILUGuTfmtTWrXg8HEDDUIyKsvagXSD8sKayu3sn17TKwKSgVDSlx7fCZFf39wibz93q3bWZDpzjzq14+bP2o25SAQEKAXBzA43EAAedsAKUOWH9+ZP24+A0CqgAC9mD6wj4DI275i5K6IgCxaTP46rSIXMBUCEIDAXgLI215i5IcABCAAgQoIIG8VBAkTIQABCEBgLwHkbS8x8kMAAhCAQAUEkLcKgoSJEIAABCCwlwDytpcY+SEAAQhAoAICyFsFQcJECEAAAhDYS0Dk7cTflKi/9P/VB5kmn6HZ636x/JfjNZ9bCD7WU8w1GnojAfOhipX+Vstd+cbAvcrnDPJmtlMIqfmvP6nPuLTBd20u+A7vCeEIbb74+LiV2/GWG1TkIzzuE0Xu45MXU6yt+uknntyH1Er7MYtXjm/7Ju/l4/29NBvaezCB0/Kmp259SEh/vNNe0F9UvlbelvYoCM25x/HR230P3nLyZrZ2lO+F/3TT8HvEN2nF0eAnK92ZqDuHlFGfwD6ttcn+trBziLTOAQTKEDgrb/PhV11pgg/syr2tEib/RWsb6tudsz2jTZnETtPme8FRRWXI7WtFKOwrtgOv3cc72BQ4Hr8W8brHesk6u7Bmbzxcxt9Y959ajnb4VVWZ5x3TDZo2+vT58m7CptfY+LouJOb6C1Jx8LFYuWY3IfYj+kEL12B8ub4e/MWgmNoWk7bcDsvGRPGKvgo/qsUWd2s27WTf2nWGZvYW9Df/FXtlwnzVYdmwr1ddjD9qk2zXP6cbZn+thQxvJHBW3hY7cXC/TG+XtSe+9H4NaztNm4ip/i8ziZsGcX2ESxq8C68eB9zoHu+fm8Br9wLR44aWDWXq96//h8OlGgL98mRqh1/jj61dF3NjYsLCSZ+ZodSmz/YTV6WCz6KrEd3J2zELk4FKJs4sNrkTLieTVjdeTxkRiIR6uAjRjIPf7WGIfktIMHQTeK3CLoihAVnvykFtKW9rn3SHsE2OIRAROCtvX7boU5vjRQ9aK30ztdvefHCY5M56I0V08p3MndhU9y68E7ZBkxNgqmnZ4cpkU2UbPf4ntwP2RkfDpWzvp6eQkym6Gkxl28PgZ9lwX+DkpuHrfhlzAke9fd7B4Jo+jCx3tn63cFrNjvPYQHeWCEoiKZ4nayMWcs+N0xDlcvRAEsZE8RAhWWeoK3IgfX6p34hfEPcw5cix7wNa+Y9UQZn3ETgrb/PphYybFubkvpomm1wLd6hkdMOBD87kyoPlbRdePwRoVAGlFF6jLJq2KtEJd8976SgI6/ZNw8OKon2BC8vbtrXs2MLQ9p3HQSTc3nv635kZjn0qXnFlypL5lQX7gniZVFdKd7F48y83T/oub+pXiJVHsNx3pbJ3CB7LFnzkEgRiAmflTXXi+OlN/TwQ/PY2GXPVqc2vl4vcOtiZ1Zi5BsQ+3uHMDSY7bdmFd4I6bDKBVw2PauamJlhmmW9pqWlmdzxchnYmdviNh9LoF6CUhT7Ag1oLC+cXyq7QUW+nMjDQD13Snh+zUFetCe197zA2UM4SLieTji5O+hmqmWQ3StRM5MxysVpriegmGLrFSVVSZYsHAROVAL+Py+Ej3UqwSHm4Igq+hsBZebO3R8BLPYH6bWHVIn+QqLt98DO2X/RPbybb+wWUYGtdU3EV72jJmBbD+HoW6obOvIZXZTT/aeBmGNbrgvaXLiMMOkv0o5ReqHQDtl5KtgUStkntXmlM+zbYQVvBDr9GiDbtCzyx0DvXtH2n90bWQ6e/bn2PH7V8p/nE+xNHnW2HhXv0X+Gb2xeESGUIQE1cXk3SPcl7NrsdlsIWxMuB8j+++brUzRrQ1TUFqRFDU6URMOl6gZ5dcFdqmtPhZMldrkHAEDgtb3rMCrp1frBflEE/2udvNXONX5xItOanLolMJBUhoMf0Hw+wx3tSEUS2kTruypJEaOsHBDLIm5nAfX/kP+pd8n5WKxabFtOOtp6pXNKJdBvqoXXDq4zpSkjNQWDlZ6YcVW+u40RP2tzG2Yy13JVn/aT8zQmIvN3UTln3YKfpm0YIswoS4HYoCJumqidwd3mrHjAOQAACEIDALwggb7+gTpsQgAAEIHAxAeTtYsBUDwEIQAACvyCAvP2COm1CAAIQgMDFBJC3iwFTPQQgAAEI/IIA8vYL6rQJAQhAAAIXExB5q+HPaS5mcWX14L2SLnVDAAIQmBFA3mZILrmAvF2ClUohoAlwfz2mI+QMJfJWplvkjFkZi2kFAvUQ4P6qJ1ZfLM0ZSuTtC+xMyTljlskkqoHAYwhwfxHKBQLI2wKUCy5x+10AlSrfTmBhKwTZxCL4gJlsk2C31SVJEXEbJN2DRiqUh7s58nYY3a6CyNsuXGSGwC4C3F+7cN05c85QIm9lIp0zZmUsphUI1EOA+6ueWH2xNGcokbcvsDMl54xZJpOoBgKPIcD9RSgXCCBvC1AuuMTtdwFUqoQABCCwTgB5W2eTMwV5y0mTuiAAAQh8JYC8fUWUJQPylgUjlUAAAhDYSkDkbWsB8kEAAhCAAATuTwB5u3+MsBACEIAABHYTQN52I6MABCAAAQjcnwDydv8YYSEEIAABCOwmgLztRkYBCEAAAhC4PwHk7f4xwkIIQAACENhNAHnbjYwCEIAABCBwfwIib/xh1v2DhYUQgMBZAoP+Qn7TDWcrCsqbz93nrTOo/lWHOZUIeSvTdXLGrIzFtAKBexAYuqZp2v6AHA1d29jNcFQFXWMFyB/l83B3nbMdYJq2z2dOvTXlHCqRtzL9IGfMylhMKxC4D4Fh6NudIjd0bThD67tWbXGmRXK3FG0AcaROXcbWPahZJfO/ccw5VCJvG3puhiw5Y5bBHKqAQIUEhr5rm6bttsxy+tZt1ymOxrO3XrbxjKdNfwXd9qefJlLIcVQi6xKbtm0+fsKlpSqoM5RWsWByEMrbOBnYg5amZkytCEVREzIm+ilvtB5rTmTX13H0F6TiYLIs19QGqJHLBy2cMJid5hwqkbcZ3pwXZgsQquPZW0LuLne/3G3/3BELVWjcKAmNX9GY3JF6WP22WDl0sWhFdegB3Q3hetokMtW1Uc1D34rCKTEKEgelZVJOiUTTaXHZImzGnFDelIx4kxNmqOlN0w12rVYXcy32bWigFmNnoG7Kr+/ONESPVMoDn2fUyhfWGLp8zMIoDMsnM9OWs226irxtwnQ6U86YnTaGCiBQJYEds7dv8hbNeFonU24i4584o+ebsNAUoCvq9GSavnTuyujmAmmJrjtb3GOWEp1gDhlMMP903wmday2esHrpmo1Hswu6Binu6nP/HrTQFU/9u2xJqsR6GvK2ziZnSs6Y5bSLuiBQA4H9v72l7rjVqcwkISazOtbrbKaoGvZnGhNXE5zpMua8V+/POHFKmhGUHwfNxYlzWXkTa0ODZsexhbPkhQupwC1kT15C3pJ4siXmjFk2o6gIAhUQ0CN/sCq41WS12ucEQ/1s5gVkIh/hzWmWCGWaM+iVQNOiKhVXGDYgdaqDjVM4XUbcUdLoCibM0BbJGqJ2y3mZWJy0S5qqMT0Hlt9IbPMhA7FIr7iuuHzMQl/16tGyJavZkwnIWxIPiRCAQLUE9NhvF/fkdzO/rqa1RH4el2Fc/YAmK4Lyy5uGMFkWFJExlZga5DdaqXCZnzTslcaYZiVuzQw1/KtXPJxfsfAHpcRj0773u2n1a6T2RVJ/3VXpNDbpsnoVZgVU2sJlGv4q8uZZcAQBCEAAAo8hgLw9JpQ4AgEIQPCw6r8AACAASURBVAACnsAl8uar5wgCEIAABCBQOwH57a12R7AfAhCAAAQg4Akgb54FRxCAAAQg8BgCyNtjQokjEIAABCDgCSBvngVHEIAABCDwGALI22NCiSMQgAAEIOAJIG+eBUcQgAAEIPAYAiJvOf/a4DF0cAQCEIAABColgLxVGjjMhgAEhABP54Ki9oOcoUTeau8N2A8BCOQcE6H5UwI5Q4m8/TSUNA4BCGQgkHNMzGAOVRwnkDOUyNvxOFASAhD4KYHgq/vuc/fy/X35cr9PcTuCkqSY3ItGKpSH+xjydhgdBSEAgZsQyPnIfxOX3mpGzlAib2/tRfgNgecQyDkmPodKlZ7kDCXyVmUXwGgIQCAgkHNMDKrlsDyBnKFE3srHjxYhAAEIQOByAsjb5YhpAAIQgAAEyhNA3sozp0UIQAACELicgMjb5S3RAAQgAAEIQKAYAeStGGoaggAEIACBcgSQt3KsaQkCEIAABIoRQN6KoaYhCEAAAhAoRwB5K8ealiAAAQhAoBgB5K0YahqCAAQgAIFyBJC3cqxpCQIQgAAEihEQecv5KZRi1tMQBCAAAQjEBBjMLQ/kLe4YnEEAAhComwDyZuOHvNXdkbEeAhCAQEwAebM8kLe4Y3AGAQhAoG4CyJuNH/JWd0fGeghAAAIxAeTN8kDe4o7BGQQgAIG6CSBvNn7IW90dGeshAAEIxASQN8sDeYs7BmcQgAAE6iaAvNn4IW91d2SshwAEIBATQN4sD+Qt7hicQQACEKibAPJm44e81d2RsR4CEIBATAB5szxE3mI+nEEAAhCAAARqJoC81Rw9bIcABCAAgRUCyNsKGC5DAAIQgEDNBJC3mqOH7RCAAAQgsEIAeVsBw2UIQAACEKiZAPJWc/SwHQIQgAAEVgggbytguAwBCJQn0LefT9vvbfdYqb2tkL8AgWOhXCkl8safShQIHU1A4D0E+rb52P+aphtCx9eTVsapsPDC8bFSCxV9uTT0nXOqafvIpS8liybfZDBfj/K4nnQslCulkLei/Y7GIPATAkMnUuMUJxac7Fb17afplqdhiaTsZhyocOimamwrURDbflCqNvRd85lo9oGmLiqSU94GEfRP03bt9ql1IsqJpLxEkLe8PKkNAncmkHPgS/uZaCmRlK6zTGpK3ppObFjNJjl+dpAPcN82slQ86CmXnH7zLmFEIulbrfvSkbd9vMgNgZoJzAYWtarz0c/ldnrnhzPlpxnSzISvaVs7rTFzQTt5cRNDP+6ZOu0sUVcvM8VEkqtn8be3qR0yiUiVClbAlIduLTHhsq9NrF+dos1Q3qdfZDNN8Wg6PV/V3rmKDaf7dwDk7T6dEksgcDUBNz6F7egxzI7+gzqJhMqPbkpiZLCfzF3m9c6vSJuJpHFcSFRtBb906YVBb6OudqFU1wZltFB7hUu4PI4T18RsORg0CV+bJNzlYIHGYdPU4qQ8+XT+98YJpXmT8ytiQyIpbwdA3oQ5BxB4PIGlgUUPVOJ5nCP45eXTBDOgqQbEpVRl8ysrTchlc7BQbu23sKDkrJSZX8gczBzI0mLK5alrQSurFs7y/PbCjEYWc5Sq+6l1SXk73gGc49cQcbXzLwQgcAMCS7d5cqwXmwc9Z5GZXQWjm8w0xQc5SLo8cU0K1XOwFOVD1k91JeA2oTRvcn5FTEgkLT4XTc2QivzBrEptH7M3T4gjCDydwGwUUL+vqdFDHA9zmDfc3G9WalHQS4ZO00n2bfnvy4WujbAJd03+XUhUBvqG1VuLwSqpKbhQSi2lBsuTauohbq67bHlYZ/Q66Kd1BFRbdlo48VbMv8XBAo1jdqn3bf3qdDyvraEDIG/H4k4pCNREYL5WZ/VC3vXQ5/GZXmBs3R96qRdQ/E8vMs7rF1P6zryhol/fmLclWpBImv3lghpYBfFkkVTsSJfyf6Wm356xKhU7GZ+ZBv07KWo9NhQ3cVtcEhNvdJBR3prO/2GA6gCBlz6YTXvTDoC8BfHiEAIQgED1BLLJW+0kkLfaI4j9EIAABEICyJulIfIW0uEYAhCAAAQgUDcB5K3u+GE9BCAAAQgsEkDeFrFwEQIQgAAE6iaAvNUdP6yHAAQgAIFFAsjbIhYuQgACEIBA3QSQt7rjh/UQgAAEILBIAHlbxMJFCEAAAhCom4DIG38qUXcgsR4CEIAABEICyFtIg2MI1EKA59FaIvXVTkL5FdHBDMjbQXAUg8BPCTAm/hR/zsYJZU6aYV3IW0iDYwjUQoAxsZZIfbUzUyj9J44/bS9fipYtjL6a8cAMyNsDg4pLzyXgh61gq077IffE5/NJUrjcFgT3oJEK5dEOPLT+q/561594u4Oj1dZaDnmrNXLY/W4CmR753w3xHt7nDKXXtD5Qunv4Wd4K5K08c1qEwHkCOcfE89ZQwwkCeUOpahvGMdx69oRtdRdF3uqOH9a/lUDeMfGtFG/hd+ZQqglcy9RNhRZ5u0UHxwgIQAACeQjod0yijbXz1FtfLchbfTHDYghAAAIQ+EoAefuKiAwQgAAEIFAfAZG3+kzHYghAAAIQgMAaAeRtjQzXIQABCECgYgLIW8XBw3QIQAACEFgjgLytkeE6BCAAAQhUTAB5qzh4mA4BCEAAAmsEkLc1MlyHAAQgAIGKCSBvFQcP0yEAAQhAYFSfp174Q3aRt8wfhoE4BCBwJQFu2CvpFq2bUJ7GjbydRkgFELgPgT1j4uLWK253mDu4ZHaoaTq/fYvdvOxORl4Gak8oRz1RCTZD+jRtgO0yG4tUPHRtY11r2t5vfnC4cWZvh9FREAI/JLBvTBz1WOHNnZz6hF8daQVu1Kfu9X9G3RaWm35l35Xt7gylVjiPZnjIzjdDF+l037Vqgz7XIY7xR96OcaMUBH5LYOeY6PTMPhK703FUwqefmNteDZT6UD06K+8SSeM49l3b2IftxpX4XmqFmnKnbd3vJ2rE9mdqPHdP9Z/pbEWMVtuVtn8W+RFxPUlNE1yNTdsZb61lfgrRdBaA05KEGStubbq8M5QTeQtOj8VLBTrwTEF0cchPfhXInwXdJDHc02ets0kfnf72ZlYsXI27EbuC/AsBCJQnsPOGdSOf3rN6/khsJk9NPNAbp5aT9JTB16PGRycCuthyqXVM2h0numqoG7yDXWvl1hQf+tY/5/etesS3higrvLwlksbBFVEaLqr6t4WK2kzGqZ0e9H19KTPWHduQ4j3dkFlliQoEoHTxZfKJeCnq4rOSuk7kLeVyAm8iac3DoYv7T5QvYbzLFyGxF4eO2Zvjw78QqInA0v2csN8ph/7Xy5IrkahtMUkLkCts/g2ftScjcJxx8cy2oirp1P98DYEw+5+c/JO+n2x9Pk38O9R6UpiiKnXK7CiJid6pL2ZIiQMHi4RT9WgFczBCaVKFFmtLxcv7OGnzi8shxM3kJ03IaUreUsa7Cpa8Rt4cHf6FQF0Elu7nhAezgTvOm6htMenriLNYKm4zOnP59cit1cZdWRHkqLQ+GQY93XJSFWaIk/Tkwk3RIj2YUfJD/2Yzwna3HTtPt+VeUzBXerG2VLy8j64K++9ml2O8US2JpCjfsiqbLCnjXSVLXiNvjg7/QqAuAkv3c8KDxMCtSiVqW076tl60XGrdwHl+f0UtOUarZ2pB0lQVK5VaV5PFxNUkNSlx1RlFlNnbZHFS/Sop9akfANfMWPdrS4r3dEvudLTWQpmIl+oa3ku1OClLvAmXV/FqC4Jl7igoKQejlWW9RurMShjvKlxiiLw5OvwLgboILN3Pax5Ei1luUcsO3PMVKJn+JJJUS2oYtJWF4/6XUgs2BiXMMDu7ELYVvVuiKKhXIZwdTrasBqwkBctqTatf0QtkzCfqV0uCgT9yOTJjwakdl/aEUouHc1dZHbQTYLM5JJQq10q8VJL3Wa/w+pltVCpy+Rj5wNqFQ62ELpTho0RkRtjZRvtelCfimJg+7xrZh9iV4l8IQOAnBLhhS2APZoPXNUcor2LLqyVXkaVeCFxJgDHxSrq67vAdwisbI5RX0RV5u6oB6oUABCBQEQG/3hW/iFmRC5hqCCBv9AQIQAACEHggAeTtgUHFJQhAAAIQQN7oAxCAAAQg8EACyNsDg4pLEIAABCCAvNEHIAABCEDggQSQtwcGFZcgAAEIQEDkjb+9oDNAAAIQeAABBnMbROTtAb0ZF15IgCHsMUHPHsrsFdaKGnmrNXLY/W4CDGGPiX/2UGavsFbUyFutkcPudxNgCHtM/LOHMnuFtaJG3mqNHHa/ksDix//th+H916TkA+rui/IkKST3opEK5bm+jbxZfsjbuY5EaQj8hgBD2G+4X9Bq9lBmr/ACp4tUibwVwUwjEMhMgCEsM9DfVZc9lNkr/B2bcy0jb+f4URoCvyHAEPYb7he0mj2U2Su8wOkiVSJvRTDTCAQgAIFCBJA3Cxp5K9TjaAYCEIBAEQLIm8WMvBXpbzQCAQhAoBAB5M2CFnkrBJ5mIAABCEAAAgUIIG8FINMEBCAAAQiUJoC8lSZOexCAAAQgUIAA8lYAMk1AAAIQgEBpAshbaeK0BwEIQAACBQggbwUg0wQEIAABCJQmgLyVJk57EIAABCBQgIDIG38qUYA2TUAAAhCAQCECyFsh0DQDAQhAAAIlCSBvJWnTFgQgAAEIFCKAvBUCTTMQgAAELiQw+D1r297vlWr3ur2w4ftWjbzdNzZYBgEIQGAPgaFtRM6Grmm6YU/px+VF3h4XUhyCAATeSsBrWh8o3VtpIG9vjTx+QwACDySg3oEfxpGp2ziOyNsDOzguQQACryWgJnAtUzcVf+TttXcBjkMAAk8koN8xkZ/gnujhVp+Qt62kyAcBCEAAAhURQN4qChamQgACEIDAVgIib1sLkA8CEIAABCBwfwLI2/1jhIUQgAAEILCbAPK2GxkFIAABCEDg/gSQt/vHCAshAAEIQGA3AeRtNzIKQAACEIDA/Qkgb/ePERZCAAIQgMBuAsjbbmQUgAAEIFAlAbWRwIv+4Fvkjd26q+yuGA2BBxAwe7nk/b692RImb53Vo0beqg8hDkAAAnclMHRt8zH/NW3vP3Dvj/JZvrvOYMs0a6P6p6bpzm6X89G+YU3M3m4YFEyCwDMJDF0b7kDWd+3nY+dXV4zLu+scOrtdmi6pY1DZstZul5/Z0axXyNujw4tzELgRgb5tuok5sm+LHpd72XDa78qpCvwVlNlUEynkOA5BovpSfjDZmtYZSuvEDnOalDc3tWt7aVLNP3VJNSd1JjZtZ68qw5XdTStT1tgvqUhn+qtCLFyr0LS26LKzT0jJo4Mq5FMXJqO9N78Rn74Zb5Dd+v/I263Dg3EQeA4BEY8ll/Tw64bWQZ3JMNy1TkV0waFvReGUgAWJg9JHKaeG9KbTQ7fIxlLT/ppYqEvq65PZm9YrVetkG+xhkAt/U9TABq0rTpJjv5R+NJ0rqKTOy9u4WuEGl8UU75k7mrijLut9T30RZYcgVHFYMd7VeOd/kbc7RwfbIPAgAiIeSz5pQfGDrB+G/bQjmpaYOmTyt1SlzFhktF7MtXTRy9sk1dsVJQS/KGorgxbjquLyYbHGyYiuOExRNfoKv7ocaGRkoz6J21eX1JTac9eZfBMp4+eV3+4K8na7kGAQBB5KYD62ekdT8jYbf6WYH4jlUnBg6tQzkOkIHuRaOoyH9SDHogt6Fubnc3GeuKo4zVc8DHqh0qpYqsItLvt6p0fz9pG3KSPOIQABCOwnMFmA67vGLcitypueX8QrkGpNz7StSgXiN8QrkVKnOvDznw1m65JL+ebyYH7WciukRqWCyZZZIZWqwvKxiKmFVeuKWZo1U6pZhd9dtp7qldpPG8/MwvatUV8WJx1qPdELHROf7nvA7O2+scEyCDyPgB7F7TKj/G7mFyD10GxeyFCvW7hJl5IttzYZLeIpcQmSAhm0b3XoGvwbK67CVbDeFNOeqOI0IVwwDGxoWv0+qLU99iQ+Uz+9tepdGEfDSaR+EUSuxxVqu4PmPsLQeeRfO1GgnLgJAdeaMtAVGQO8QX2xufGZFL31AfJ26/BgHAQgAAEIHCOAvB3jRikIQAACELg1AZG3W1uJcRCAAAQgAIFdBJC3XbjIDAEIQAACdRBA3uqIE1ZCAAIQgMAuAsjbLlxkhgAEIACBOgggb3XECSshAAEIQGAXAeRtFy4yQwACEIBAHQSQtzrihJUQqJRA9JHjSn14q9kL3zipCoXIW+2OVEUdYyHwEgL6w1Mv8TXpZp0DrHzWLOnbbRORt9uGBsMgUD0Bpm4uhHXKm96xTr5L5nyp5l/krZpQYSgEKiPA1M0HrFZ5s5vSeUdqOkLeaooWtkKgIgJM3YJgVStv41hvHJG3oAdyCAEI5CKgp27ug/W5Kq23norlrd4JHPJW7w2D5RC4L4F6H/mvYVqzvFU7gUPerunM1AqBNxNg6jaNft3yZiZwU59uf4683T5EGAiB2ghUPpZfgbt6JDVOx5G3K7oydULgxQQq/2OpayJXvbzVOIFD3q7pzNQKgbcSqH8gvyJyT6BS3QQOebuiK1MnBCAAgZDAE+Qt9KeKY5G3KqzFSAhAAAIQgMAmAsjbJkxkggAEIACBugggb3XFC2shAAEIQGATAeRtEyYyQQACEIBAXQSQt7rihbUQgAAEILCJAPK2CROZIAABCECgLgLIW13xwtrHEejbz2f/jlrHSj0OHg5V97doJUMm8safZZTETluPJNC3zcf+1zRd9LX89aRjQnWs1F2or9M4Y6FicuRR4UybPy7LjnrJACBvSTwkVktg6ERqnOLEgpPdMz3U9IvVJpIW8xe+uPsrWkZInJR/Pp9mz/zzQhrXPaXPXFbeN911kdoSlGjqdsLCLW1d5+l1NSNv17Gl5jsQuG7Am3qXaCmRNK3lF+dHRjddxho7qGeJyXQ14ceFNC6sehxDl8fZacLhQ0nfgzKfuh218Htbh1z4eSHk7echwIBLCcwGPPOQ27SdW0mMZx5DuHDWtnaR0cwF7QjuJoZ+xjJ7cPZjfSLJ1bO4oDa1Q36fS5UKbP80rcxWEy772mQu5m1PBWYykkaYV8wYR/VZ3vg/05ixYhlvwnhl3yBxVFPIrhVOKeOPpTmXrRi4U++V7hDORdc7lIFuIaFpuz5as16O8ragRFM345EzaYeFybZcYtuLoU1rPUj6dQxw9lLIW3akVHgrAtG4ay1Td60b/fXMww1FeqRqusEOQeqelsHeDhnOuXm98ysurxrVfRNy1R4sJKq23DCihvB+PpQtlOraoIwq1XqFS7hs5yHRsDu1cX7uRlKVojmJgykzdD0Lps9siPKsGq+NEMEwQ7DYMbf55BU32OtVyRiXbto8JyltD4M3Dq47aS0OOkI6ytq3uJXQfj11myYftNDMS6eVuda0XjfNRJjHdb9cwd//i7z9PgZYcCWBaJy0DYVDs1a0YEgMZgOfxmmgKjcZbub1zq+IX4mkafu6TOdVVeqYHMyqDIY2P0GSH4dSLk9dm7S0fBo1F4x90XVniJih65qZrq6m8K4ZP3TxzHuR5bL5R646MyamuqoGO2+TByKTEHYoxcP3tXSUV1qxrc2fd1TCMQtn8J1H5t/FcKkybvnDRNn7FRf/5Rny9kv6tH09gaWb040CpvWlHCplGPQzubttJ8PNvNT8iniXSFocktMDn652VuXEPmnbHCRdThed1GRPgwr7rvFyvKGumemqykm5KE/QllngtDH5kbytAFHq9gcinrqZ12hkYhS5lY7yBEjU6OLUzUGMcoYnWn9nFqocqbaWlx5SfoVt/vYYefstf1q/mkA0oNjG1oZLLTXhTEQN3OEvWO7XoV4/uTrhs7UutfQ9aVHelIG+YbU4GaySmjoXWlNLqcHypBrNZNq07rId3ZxiqHXQTyvjsXVg/k9coZqzORwpM3Q9C6Yb1VrDG7cVFNcJJRcnhad2RHqHW5tU2MJjpRsfFxLztCSYjKisR1n5thKUgEAcmBjUOI7fLdQVJNpa7J9pv2KbfnmGvP2SPm1fR2C+SGZHEvfTv3nVLz7TT6qtX3QJ1UIPR3a1zbzEIL/BzNtyQ70eB9wS3WQRZ/aXC9GL5uHaT6ha6VJGd01DfmU1djI+MxHwL4OoUl/FTarwa22GgfV72YyQoGMioMLECK+0peMXn2lplnAFxfL3K2nYWa7/jW3SzkhG41oQx8A+RzhIVUvhotTa/pWgaA1zFQSOSsM7LVxvK9Gvw7XJBb8Cs355iLz9kj5tQwACENhFYHXqtquWd2RG3t4RZ7yEAAQg8DICIm8v8xt3IQABCEDg0QSQt0eHF+cgAAEIvJUA8vbWyOM3BCAAgUcTQN4eHV6cgwAEIPBWAsjbWyOP3xCAAAQeTQB5e3R4cQ4CEIDAWwkgb2+NPH5DAAIQeDQBkTf+WPDRccY5CECgUgLmcyTB910q9cN8BCX4DNnlfiBvlyOmgfIEzJerwhvJfl8o/mZgecMqahGGGYI1+6yV/1LartpzzD7WPub1zRD34bDZR8MSBV0Zs5G7b9kfJQrnS0Le8rGkphsR0E+8jXwa2Awz9T8AFyUMwyy4I2lSHTF87NrYQlTHxjLTbAelxe1OMPTxFzGn1fvzofP7DKpvZXdqKwXzZfKDNvi69x0hb/t4kbsSAmo8aGUT0b5tgjNzy7ktlIOHUrMKtLqRt//E7Ud2Q9U47GeO7S1savEfG66E2NxMGM6ZHLgylabgfLVHqQ9MTz4VrZ/NzGOa1wr99eTwqU3vV2C/qdyoj4MHxeafWt7izXzXoS+l/pzqJln8xgXqSG9KoY1xWyLo7MrjpW3Nv9yVHlTT2cmyA9Ijb5NAcPoMAnoM0c+Keq+VplPbw9hur8QueBJVI4K7IfQX/t0CUryRd3IT6kEqV/gKP6NeFTEYZiHrO56pTnrHeo/SWaSLGslyXVSKm9rC2lVS0LMnm7xPCm71Lb4LvpdKyqHWH2fjtObVbc1Td2XgsdmKSDaw6toWefseL3JUSMDe9ephsVP/C7atUk+Xk/1E5OnSKJP468cO+1wYPQD73dRiRfOlpKIqD2CYJWzT7mBlJtGj5goR1DFRqSDF7+62aPek4GKe2UX96Ke2PWyHcfCLjLN8/sLceJ82ffALjQ/nq/o2c3runhelGl9KuyTXw/3ttCJ+kLcQDsePIeBuAb2yoW8Ud2U8Km8zUYxhuQnc7JaLs1V05ojB8FTQHEZXiT1PqM1cIYI6JuWClAvkzdWuGlUbkU9XHZ1P4b+uTHjNHa8bn9z+WxdzdQTbh8fXp/LWdMibQOPgSQTm95i/8mVxMriHfRk1+wvWQfSmzJO7Xd9r0f7elQMNvTeu+Csw3BxcD03v5e1XCtZ7lOlKbokhXpxUo7v78W2ya7wqFjyETTZ5V6l2RqSXLTfuyW4aU2v7bnH/q+fKMb9Aohpz59ox51ewoqInW25ddbat+eqait6O3BUzEzbfsPph05kaxcBd5F8IVEggWPYxnX12Qb3NJb9iu58C9N1mVh91MfOTtmzJbV9IccuT7ge6kI9avdk8BoQF73c8Qza7AMMNUQuo2Z4VvVQYMozfVgqX6oLdsHWTvtIgxWqGf9His3n776QfrkL1blYjb0AmizgVt7eKPBV6u91ySnC3rTg8fL0rnYHaNv/soC1E3r4FinQIbCUweTbdWox8AQEYBjA43EkAedsJjOwQ2EggfANzYxGyTQjAcAKE080EJm+K/v0UJ7O3zXWQEQIQiAjIKqZeawle+IpycZIiAMMUHdISBOxfneoPpPhf/HQB5C3BjSQIQAACEKiVAPJWa+SwGwIQgAAEEgSQtwQckiAAAQhAoFYCyFutkcNuCEAAAhBIEEDeEnBIggAEIACBWgkgb7VGDrshAAEIQCBBQOSNr5YkKJEEAQhAoBYCDOY2UshbLV0WO48R4FY/xm1jKfBuBFUyG0GxtJG3kt2OtsoT4Fa/lDl4L8V7rHKCYrkhb8c6EKVqIcCtfmmkwHsp3mOVExTLDXk71oEodXMC8Uee7LfL7fey/Fd87HX1sXHjD0kKyXcaKbw37xkvMA95s0FG3l7Q21/tIrf6peEH76V4j1VOUCw35O1YB6JULQS41S+NFHgvxXuscoJiuSFvxzoQpWohwK1+aaTAeyneY5UTFMsNeTvWgSgFAQhA4J4EkDcbF+Ttnh0UqyAAAQgcI4C8WW7I27EORCkIQAAC9ySAvNm4iLzdM05YBQEIQAACEDhCAHk7Qo0yEIAABCBwcwLI280DhHkQgAAEIHCEAPJ2hBplIAABCEDg5gSQt5sHCPMgAAEIQOAIAeTtCDXKQAACEIDAzQkgbzcPEOZBAAIQgMARAiJv/KnEEXyUuT0BOvaXEJmP/zfd8CUfyRCojQDyVlvEsHcfgTzyNkx2yrFb6+wzJUPu+UY0OXRp6Joc1WTwjyogkJEA8pYRJlXdkEAeebOOZa3sICytRVK275rPaa1F3oQnB08igLw9KZr4MieQVZHWK+u7tmnM7qhN0/bhSt9ikpkNtn3f2lKfpt22PhjJ29CHE6/BG6Gqi6wYB9/Up2nbUBV1lUoorQPbDJmz5sovCQQrDKpf2WCef/j5pU8n20beTgKk+M0JrCvSAcNXKuvbSNGUkLgZVTLp81HlnBRunEMFo5gaweKWpbJx6NpgZFN1B6KrVHGS2mkVRtgO9IobFRl8zxs39qcbWZ/dFOQtO1IqvBWBFUU6ZmNcmTv7mxZNZcHNqRJJoyvuTVnI7RPdkR613Imek4mWqtmbe2hX/zqNHUdnj5SLDpxi+vxRMif1EPCaFjxj1WN+ZkuRt8xAqe5mBOYicsLAuDJ3tqBKTk4SSYvyFijSmpmxvI2j1NO3nyZYkHTW6XqcPcuVmjFRidxMp5cLcPW+BFTch28PNPc1P6tlyFtWnFR2OwLRKH/WurgyOUuuQIaLvrXLLwAADUNJREFUgnqy5eZI6ueRY4uTTecd0aKkfmVTB279cTA/tLmWdGL4cuQQr0TKI7868IV8IxxVREAHMVikrMj03KYib7mJUt+9CIgGnTLLLd+FS3/R8p/SC5sY/cqlZlcrSdoyv5646dUS/8aAWOLl09elZLPTLxf46ViQ+glNNFWafLxdcqqX3KSw7qw8pYzjiLzdpEtixkUE8sjbFcbd17IrvKVOCBQngLwVR06DRQncV0Tua1nRANEYBK4iIPJ2VQPUCwEIzAnIMuCH1znmdLgCgRwEkLccFKkDAhCAAARuRgB5u1lAMAcCEIAABHIQQN5yUKQOCEAAAhC4GQHk7WYBwRwIQAACEMhBAHnLQZE6IAABCEDgZgSQt5sFBHMgAAEIQCAHAZE3/ggnB07quB0BOvbtQoJBEChDAHkrw5lWfkUAefsV+Zu0Swe4SSDOm7E7lMjbeejUcGcCu2+JOzuDbfsJ0AH2M7tpid2hRN5uGknMykRg9y2RqV2quQkBOsBNAnHejN2hRN7OQ6eGOxPYfUvc2Rls20xgYW8F2d81+CKa23jB7TFEkiJyLxqpUKb7A/KW5kNq7QSQt9ojeNJ+OsBJgPcpvjuUyNt9goclVxDYfUtcYQR1/o4AHeB37DO3vDuUyFvmCFDdzQjsviVuZj/mnCRABzgJ8D7Fd4cSebtP8LDkCgK7b4krjKBOCECgPAHkrTxzWixJAHkrSZu2IHAjAsjbjYKBKRcQQN4ugEqVEKiBgMhbDcZiIwQgAAEIQGAbAeRtGydyQQACEIBAVQSQt6rChbEQgAAEILCNAPK2jRO5IAABCECgKgLIW1XhwlgIQAACENhGAHnbxolcEIAABCBQFQHkrapwYSwEIAABCGwjIPLGnwdtA0auygjQsSsLWG5z79sBzJfwm27I7fKx+vq2kf0TJkYlko61dazU7lAib8dAU6oWArtviVocw85tBC7vAGYPnVAQBnfpq4VD14QFv+b/mmHoRKSatt9Rfd9+mq5frD+RtJj/sou7Q4m8XRYLKr4Fgd23xC2sxohsBAp0AD0Na1o3CzPq1i5rRezXDv2JCy6eDV0bTgX7rlVbtzmzFovIxQSmRJIUL3Kw2xDkrUhcaORnBHbfEj+zlIYvIVCgA6gm2vZjBa1vm+BsVPMpt+rXtF0fqY2Wt172UA20KFgP/DSRaq1S+ivSTRLDyWHvDWnUzE6yzrYL9WYkksaEhYkkafXAwe5QIm8HKFOkIgK7b4mKfMPUDQQKdADdhFaqcVSjfjeEjQ6DKMnf9MqJoLHcytufAMaTrK4N9Wcc+va7wg1dsz5jVJobKNqgz0N6ocXhde1RbLROTliYSJrUvPM0YeNyTcjbMheuPoXA7lviKY7jhyFQoAPYJtRUqVP/UxonihD8Gqbf3IgkyP5KJ5mNye6qe9ND/zubmU0DnJI3rblxgXBit6ZhqwQTFiaSYgP2nwVUtxVG3rZxIletBHbfErU6it3LBAp0ANeEXsrT8uWuKJ1rggVJuW5tNb+9KUUIp2/m6rI7iavTyoOsF8hbaHDQ0njQ+LCKteOEg8tFkLdlLlx9CoHdt8RTHMcPQ6BAB5g34a4o4XKLgoNaEfzEEzXRAnUQzOv6Nvp5TC12fp29mYXRQHWGvmvcqmf2xcmEhYmkc53SUd1cC/K2GRUZqySw+5ao0kuMXiVwcQcI1uKMskwuBGuTTavfZZS3Gc17G6bU/O0S9SaIW53c+G7JOI5a0myxSCHHMagwSgkMtgVFZxNJSkzXLUwkrQbqe8LuUCJv36GSo2YCu2+Jmp3F9jkBOsCcSaVXdocSeas00pi9kcDuW2JjvWSrhAAdoJJAfTdzdyhF3r7XTQ4IQAACEIBALQSQt1oihZ0QgAAEILCDAPK2AxZZIQABCECgFgLIWy2Rwk4IQAACENhBAHnbAYusEIAABCBQCwHkrZZIYScEIAABCOwggLztgEVWCEAAAhCohYDI2+4/KajFQ+x8NwE69rvjj/cvJoC8vTj4r3AdeXtFmNedpAOss6ksZXcokbfKIoy5OwnsviV21k/2mxOgA9w8QNvN2x1K5G07XHLWSGD3LVGjk9i8ToAOsM6mspTdoUTeKosw5u4ksPuW2Fk/2e9JwHyO331yP/4Uvnye3ye77WZIUkzuRSMVynTnQ97SfEitnQDyVnsET9pPBzgJ8D7Fd4cSebtP8LDkCgK7b4krjKDO3xGgA/yOfeaWd4cSecscAaq7GYHdt8TN7MeckwToACcB3qf47lAib/cJHpZcQWD3LXGFEdQJAQiUJ4C8lWdOiyUJIG8ladMWBG5EAHm7UTAw5QICyNsFUKkSAjUQEHmrwVhshAAEIAABCGwjgLxt40QuCEAAAhCoigDyVlW4MBYCEIAABLYRQN62cSIXBCAAAQhURQB5qypcGAsBCEAAAtsIIG/bOJELAhCAAASqIoC8VRUujIUABCAAgW0ERN7486BtwMhVGQE6dmUBw9xtBOjY3zkhb98ZkaNmAowCNUcP21cJ0LFX0UgC8iYoOHgkAUaBR4YVp+jY3/sA8vadETlqJsAoUHP0sH2VAB17FY0kIG+CgoNHEmAUeGRYcYqO/b0PIG/fGZGjZgKMAjVHD9tXCdCxV9FIAvImKDh4JAFGgUeGFafo2N/7APL2nRE5aibAKFBz9LB9lQAdexWNJCBvgoKDRxJgFHhkWHGKjv29DyBv3xmRo2YCjAI1Rw/bVwnQsVfRSALyJig4eCQBRoFHhhWn6Njf+4DI2/es5IAABCAAAQjUQgB5qyVS2AkBCEAAAjsIIG87YJEVAhCAAARqIYC81RIp7IQABCAAgR0EkLcdsMgKAQhAAAK1EEDeaokUdkIAAhCAwA4CyNsOWGSFAAQgAIFaCIi88VcUtYQMOyEAAQhA4DsB5O07I3LUTIDntpqjh+0QOEEAeTsBj6IVEEDeKggSJkLgCgLI2xVUqfM+BJC3+8QCS04TGLrmY/9r+771x6drfmIFyNsTo4pPo7/z3Qjw+XzaXpPxI4SkNZ1hRpJCAg3pGPejMY5D29iePI5D1zTdwA2/TAB5W+bC1acQYPb2lEjihyPgNa0PlM6l8q8QQN4EBQePJIC8PTKsL3dK9ephHJm6pfsB8pbmQ2rtBJC32iOI/QsE1ASuZeq2QCa8hLyFNDiGAAQgUAMB/Y6J/ARXg8U/sBF5+wF0moQABCAAgasJIG9XE6Z+CEAAAhD4AQGRtx+0TZMQgAAEIACBiwggbxeBpVoIQAACEPglAeTtl/RpGwIQgAAELiKAvF0ElmohAAEIQOCXBJC3X9KnbQhAAAIQuIgA8nYRWKqFAAQgAIFfEkDefkmftiEAAQi8joD64HmJP0kXeePbRa/rYzgMAQhA4AcEkLcfQKdJCEDgKQSmWyI17a82jvEf+N/G1luu97rxmzS5jYq2VZMhl2+6zGwrg8lRFczeIhycQAACjyEQLUkNP9s8Zq+8jaParjBavJueFw2R2pegU/8r2mqOxpC3HBSpAwIQuB+BiSjIqdvyuu2V5umtS5u2d5uC9l3b2C2xG3vZzKfUJ/rV9qZqm2ydwewqaqY4clHncBNF11KwPeqm3UfFVAs1OhejdVN/xrrWlCxayyMrRr3tqbZh2eVU6LQ4jwub7wyda6zprJ9WklWKs6NpOyEb2DGdDTrCvs5I3lMGJtKQtwQckiAAgYoJTEUhmhHpAbVposFX64MXunH0Uz41gGux0yO5yjN0MsVSdalEp5DxfC0+28Qzsnwym+vbT9O5ppSBIm9dG9qujI8XZJddThvkLfFHqoTakMfpltZbsUKJmDNP6apQChqK6zIJhrCR6kGdnBc45C1gziEEIPAgAmZKYGdOfjQ2Hi6NsGr246dCJp/dMtRNYoKFQ1+DP3L0wooyy5tSDDc3+jT+J0Wtu8E0UR9GK4pzM525q/9O/HCK42nYktHGqqGBygpXyreyZElc51IOX37jEfK2ERTZIACByggkh8jFxHA0t84elTc/qOeWNx+FYdATJyMf35tZdNnXNj+aK6ZV/1iK4qVLPbt0E7vgaSCsfsmSuM6lHGENm46Rt02YyAQBCFRHIDlELifq90/cGuNkcdLOhKSgHKg3Qb4sTtoJzNCrX+pa38AaU7Xm6Bf/wpW6WD1UhTLhjApp4z+nZm/DbDtwL//R4qRyyllhlhWNh0Z9vdCLtx6dXBqRN8+CIwhAAALrBOKVyfCtv/mcJFo9U6+WuAVNKzFSlxrDzUnb2wN7qe39kpxfMLTm/amCq7GVn83WTdcpel5mSkX1KWUw77joRC+CulRg/Cco9sXlBVOCEpaOQLBKFvirXi1x8qZ/bvPu9l2r7LSp4V8aOCI6NFK5zhifLVi38RKzt42gyAYBCEBgmcDSZGQ551OvhvJ2Hx+Rt/vEAksgAIEqCbxc3vSSazQDvkkURd5uYg9mQAACEKiJQLDg5hfoanLgqK3e8WAZ9Ghll5RD3i7BSqUQgAAEIPBbAsjbb/nTOgQgAAEIXELgf76XGZZl56JQAAAAAElFTkSuQmCC;" vertex="1" parent="WIyWlLk6GJQsqaUBKTNV-1">
          <mxGeometry x="30" y="530" width="586" height="595" as="geometry" />
        </mxCell>
      </root>
    </mxGraphModel>
  </diagram>
</mxfile>
